HIERARCHY
ROOT Hips
{
	OFFSET 0.000000 71.427986 0.000000
	CHANNELS 6 Xposition Yposition Zposition Xrotation Yrotation Zrotation
	JOINT Pelvis
	{
		OFFSET 0.000000 0.000000 0.000000
		CHANNELS 3 Xrotation Yrotation Zrotation
		JOINT LeftUpLeg
		{
			OFFSET 6.797100 -2.508499 -1.318700
			CHANNELS 3 Xrotation Yrotation Zrotation
			JOINT LeftLeg
			{
				OFFSET 0.069008 -29.241863 0.690200
				CHANNELS 3 Xrotation Yrotation Zrotation
				JOINT LeftFoot
				{
					OFFSET -0.069008 -29.568123 -0.266800
					CHANNELS 3 Xrotation Yrotation Zrotation
					JOINT LeftToeBase
					{
						OFFSET 3.145500 -8.631000 16.059900
						CHANNELS 3 Xrotation Yrotation Zrotation
						End Site
						{
							OFFSET 0.000000 18.501587 0.000000
						}
					}
				}
			}
			JOINT Left_ShortSleeve
			{
				OFFSET 0.265923 -10.480953 1.153800
				CHANNELS 3 Xrotation Yrotation Zrotation
				End Site
				{
					OFFSET 1.725763 19.823879 0.000000
				}
			}
		}
		JOINT RightUpLeg
		{
			OFFSET -6.797100 -2.508499 -1.318700
			CHANNELS 3 Xrotation Yrotation Zrotation
			JOINT RightLeg
			{
				OFFSET -0.082453 -29.241932 0.688000
				CHANNELS 3 Xrotation Yrotation Zrotation
				JOINT RightFoot
				{
					OFFSET 0.082453 -29.568058 -0.264600
					CHANNELS 3 Xrotation Yrotation Zrotation
					JOINT RightToeBase
					{
						OFFSET -3.115300 -8.682800 16.113400
						CHANNELS 3 Xrotation Yrotation Zrotation
						End Site
						{
							OFFSET 0.000000 18.567114 0.000000
						}
					}
				}
			}
			JOINT Right_ShortSleeve
			{
				OFFSET -0.265923 -10.480953 1.153800
				CHANNELS 3 Xrotation Yrotation Zrotation
				End Site
				{
					OFFSET -1.725766 19.823910 0.000000
				}
			}
		}
	}
	JOINT Spine
	{
		OFFSET 0.000000 13.368103 0.470500
		CHANNELS 3 Xrotation Yrotation Zrotation
		JOINT Spine1
		{
			OFFSET 0.147000 13.837402 0.538800
			CHANNELS 3 Xrotation Yrotation Zrotation
			JOINT Spine2
			{
				OFFSET 0.168000 16.242897 -1.435500
				CHANNELS 3 Xrotation Yrotation Zrotation
				JOINT Neck
				{
					OFFSET 0.217200 18.631500 -1.679100
					CHANNELS 3 Xrotation Yrotation Zrotation
					JOINT Head
					{
						OFFSET 0.000000 6.599396 1.385900
						CHANNELS 3 Xrotation Yrotation Zrotation
						JOINT Hat
						{
							OFFSET -0.532200 27.220596 -10.096100
							CHANNELS 3 Xrotation Yrotation Zrotation
							End Site
							{
								OFFSET 0.000000 22.029861 0.000000
							}
						}
						JOINT HairD
						{
							OFFSET -10.777400 17.437393 -1.325900
							CHANNELS 3 Xrotation Yrotation Zrotation
							JOINT HairD1
							{
								OFFSET -3.290299 -11.051193 1.062200
								CHANNELS 3 Xrotation Yrotation Zrotation
								End Site
								{
									OFFSET 0.000000 11.579437 0.000000
								}
							}
						}
						JOINT HairB
						{
							OFFSET -10.777400 17.437393 1.467900
							CHANNELS 3 Xrotation Yrotation Zrotation
							JOINT HairB1
							{
								OFFSET -1.561200 -12.956299 3.590200
								CHANNELS 3 Xrotation Yrotation Zrotation
								End Site
								{
									OFFSET 0.000000 13.534866 0.000000
								}
							}
						}
						JOINT HairA
						{
							OFFSET 9.713100 17.437393 1.467900
							CHANNELS 3 Xrotation Yrotation Zrotation
							JOINT HairA1
							{
								OFFSET 1.561200 -12.956299 3.590200
								CHANNELS 3 Xrotation Yrotation Zrotation
								End Site
								{
									OFFSET 0.000000 13.534866 0.000000
								}
							}
						}
						JOINT HairC
						{
							OFFSET 9.713100 17.437393 -1.325900
							CHANNELS 3 Xrotation Yrotation Zrotation
							JOINT HairC1
							{
								OFFSET 3.290300 -11.051193 1.062200
								CHANNELS 3 Xrotation Yrotation Zrotation
								End Site
								{
									OFFSET 0.000000 11.579437 0.000000
								}
							}
						}
					}
				}
				JOINT LeftShoulder
				{
					OFFSET 5.101800 15.108002 -2.763700
					CHANNELS 3 Xrotation Yrotation Zrotation
					JOINT LeftArm
					{
						OFFSET 9.825497 2.506317 -1.597400
						CHANNELS 3 Xrotation Yrotation Zrotation
						JOINT LeftForeArm
						{
							OFFSET 21.966244 0.000000 0.000000
							CHANNELS 3 Xrotation Yrotation Zrotation
							JOINT LeftHand
							{
								OFFSET 33.879036 0.000000 0.000000
								CHANNELS 3 Xrotation Yrotation Zrotation
								JOINT LeftHandThumb1
								{
									OFFSET 6.715286 -2.359680 3.363841
									CHANNELS 3 Xrotation Yrotation Zrotation
									JOINT LeftHandThumb2
									{
										OFFSET 2.507072 -1.447464 1.447461
										CHANNELS 3 Xrotation Yrotation Zrotation
										JOINT LeftHandThumb3
										{
											OFFSET 2.898338 -1.673355 1.673357
											CHANNELS 3 Xrotation Yrotation Zrotation
											End Site
											{
												OFFSET -0.295959 3.727692 -0.131651
											}
										}
									}
								}
								JOINT LeftHandIndex1
								{
									OFFSET 14.190811 -0.254547 3.840278
									CHANNELS 3 Xrotation Yrotation Zrotation
									JOINT LeftHandIndex2
									{
										OFFSET 3.551727 0.000000 -0.000000
										CHANNELS 3 Xrotation Yrotation Zrotation
										JOINT LeftHandIndex3
										{
											OFFSET 2.894196 0.000000 0.000000
											CHANNELS 3 Xrotation Yrotation Zrotation
											End Site
											{
												OFFSET -1.000603 2.690872 0.366626
											}
										}
									}
								}
								JOINT LeftHandMiddle1
								{
									OFFSET 13.776489 0.000000 0.000000
									CHANNELS 3 Xrotation Yrotation Zrotation
									JOINT LeftHandMiddle2
									{
										OFFSET 3.438232 0.000000 0.000000
										CHANNELS 3 Xrotation Yrotation Zrotation
										JOINT LeftHandMiddle3
										{
											OFFSET 3.691551 0.000000 0.000000
											CHANNELS 3 Xrotation Yrotation Zrotation
											End Site
											{
												OFFSET -1.082298 3.499527 0.457670
											}
										}
									}
								}
								JOINT LeftHandRing1
								{
									OFFSET 13.966164 -0.268127 -3.067488
									CHANNELS 3 Xrotation Yrotation Zrotation
									JOINT LeftHandRing2
									{
										OFFSET 3.162567 0.000000 0.000000
										CHANNELS 3 Xrotation Yrotation Zrotation
										JOINT LeftHandRing3
										{
											OFFSET 3.324348 0.000000 0.000000
											CHANNELS 3 Xrotation Yrotation Zrotation
											End Site
											{
												OFFSET -0.861900 3.184998 0.405154
											}
										}
									}
								}
								JOINT LeftHandPinky1
								{
									OFFSET 13.131393 -0.168503 -5.746925
									CHANNELS 3 Xrotation Yrotation Zrotation
									JOINT LeftHandPinky2
									{
										OFFSET 2.849182 0.000000 0.000000
										CHANNELS 3 Xrotation Yrotation Zrotation
										JOINT LeftHandPinky3
										{
											OFFSET 2.805038 0.000000 0.000000
											CHANNELS 3 Xrotation Yrotation Zrotation
											End Site
											{
												OFFSET -0.882500 2.642609 0.325652
											}
										}
									}
								}
							}
							JOINT Left_Sleeve
							{
								OFFSET 6.592125 -0.646545 0.805568
								CHANNELS 3 Xrotation Yrotation Zrotation
								End Site
								{
									OFFSET -0.000179 20.275787 -0.000000
								}
							}
						}
					}
				}
				JOINT RightShoulder
				{
					OFFSET -5.731700 15.108002 -2.763700
					CHANNELS 3 Xrotation Yrotation Zrotation
					JOINT RightArm
					{
						OFFSET -9.825497 2.506317 -1.597400
						CHANNELS 3 Xrotation Yrotation Zrotation
						JOINT RightForeArm
						{
							OFFSET -21.966242 0.000000 0.000000
							CHANNELS 3 Xrotation Yrotation Zrotation
							JOINT RightHand
							{
								OFFSET -33.879032 0.000000 0.000000
								CHANNELS 3 Xrotation Yrotation Zrotation
								JOINT RightHandThumb1
								{
									OFFSET -6.715286 -2.359680 3.363841
									CHANNELS 3 Xrotation Yrotation Zrotation
									JOINT RightHandThumb2
									{
										OFFSET -2.507072 -1.447464 1.447461
										CHANNELS 3 Xrotation Yrotation Zrotation
										JOINT RightHandThumb3
										{
											OFFSET -2.898338 -1.673355 1.673357
											CHANNELS 3 Xrotation Yrotation Zrotation
											End Site
											{
												OFFSET 0.295959 3.727692 -0.131651
											}
										}
									}
								}
								JOINT RightHandIndex1
								{
									OFFSET -14.190811 -0.254547 3.840278
									CHANNELS 3 Xrotation Yrotation Zrotation
									JOINT RightHandIndex2
									{
										OFFSET -3.551727 0.000000 -0.000000
										CHANNELS 3 Xrotation Yrotation Zrotation
										JOINT RightHandIndex3
										{
											OFFSET -2.894196 0.000000 0.000000
											CHANNELS 3 Xrotation Yrotation Zrotation
											End Site
											{
												OFFSET 1.000603 2.690872 0.366626
											}
										}
									}
								}
								JOINT RightHandMiddle1
								{
									OFFSET -13.776489 0.000000 0.000000
									CHANNELS 3 Xrotation Yrotation Zrotation
									JOINT RightHandMiddle2
									{
										OFFSET -3.438232 0.000000 0.000000
										CHANNELS 3 Xrotation Yrotation Zrotation
										JOINT RightHandMiddle3
										{
											OFFSET -3.691551 0.000000 0.000000
											CHANNELS 3 Xrotation Yrotation Zrotation
											End Site
											{
												OFFSET 1.082298 3.499527 0.457670
											}
										}
									}
								}
								JOINT RightHandRing1
								{
									OFFSET -13.966164 -0.268127 -3.067488
									CHANNELS 3 Xrotation Yrotation Zrotation
									JOINT RightHandRing2
									{
										OFFSET -3.162567 0.000000 0.000000
										CHANNELS 3 Xrotation Yrotation Zrotation
										JOINT RightHandRing3
										{
											OFFSET -3.324348 0.000000 0.000000
											CHANNELS 3 Xrotation Yrotation Zrotation
											End Site
											{
												OFFSET 0.861900 3.184998 0.405154
											}
										}
									}
								}
								JOINT RightHandPinky1
								{
									OFFSET -13.131393 -0.168503 -5.746925
									CHANNELS 3 Xrotation Yrotation Zrotation
									JOINT RightHandPinky2
									{
										OFFSET -2.849182 0.000000 0.000000
										CHANNELS 3 Xrotation Yrotation Zrotation
										JOINT RightHandPinky3
										{
											OFFSET -2.805038 0.000000 0.000000
											CHANNELS 3 Xrotation Yrotation Zrotation
											End Site
											{
												OFFSET 0.882500 2.642609 0.325652
											}
										}
									}
								}
							}
							JOINT Right_Sleeve
							{
								OFFSET -6.592125 -0.646545 0.805568
								CHANNELS 3 Xrotation Yrotation Zrotation
								End Site
								{
									OFFSET 0.000179 20.275787 -0.000000
								}
							}
						}
					}
				}
				JOINT Bind_Right_JacketString
				{
					OFFSET -3.534800 11.969597 7.200700
					CHANNELS 3 Xrotation Yrotation Zrotation
					JOINT Bind_Right_JacketString1
					{
						OFFSET -0.319900 -6.102600 2.794100
						CHANNELS 3 Xrotation Yrotation Zrotation
						End Site
						{
							OFFSET 0.000000 6.719452 0.000000
						}
					}
				}
				JOINT Bind_Left_JacketString
				{
					OFFSET 2.904800 11.969597 7.200700
					CHANNELS 3 Xrotation Yrotation Zrotation
					JOINT Bind_Left_JacketString1
					{
						OFFSET 0.364800 -5.904503 3.186800
						CHANNELS 3 Xrotation Yrotation Zrotation
						End Site
						{
							OFFSET 0.000000 6.719513 0.000000
						}
					}
				}
				JOINT HairE
				{
					OFFSET 5.915200 17.612701 -11.592200
					CHANNELS 3 Xrotation Yrotation Zrotation
					JOINT HairE1
					{
						OFFSET 0.289200 -7.171898 -1.284500
						CHANNELS 3 Xrotation Yrotation Zrotation
						End Site
						{
							OFFSET 0.000000 7.291756 0.000000
						}
					}
				}
				JOINT HairF
				{
					OFFSET -0.864800 17.612701 -11.592200
					CHANNELS 3 Xrotation Yrotation Zrotation
					JOINT HairF1
					{
						OFFSET 0.000000 -14.087097 -2.127501
						CHANNELS 3 Xrotation Yrotation Zrotation
						End Site
						{
							OFFSET 0.000000 14.246841 0.000000
						}
					}
				}
				JOINT HairG
				{
					OFFSET -8.087700 17.612701 -11.592200
					CHANNELS 3 Xrotation Yrotation Zrotation
					JOINT HairG1
					{
						OFFSET -0.293600 -6.081398 -0.910100
						CHANNELS 3 Xrotation Yrotation Zrotation
						End Site
						{
							OFFSET 0.000000 6.156120 0.000000
						}
					}
				}
			}
		}
	}
	JOINT Pouch
	{
		OFFSET 0.000000 4.394501 10.847300
		CHANNELS 3 Xrotation Yrotation Zrotation
		End Site
		{
			OFFSET 0.000000 21.880577 0.000000
		}
	}
	JOINT Bag
	{
		OFFSET -13.229000 4.813004 -0.593300
		CHANNELS 3 Xrotation Yrotation Zrotation
		End Site
		{
			OFFSET 0.000000 21.880577 0.000000
		}
	}
	JOINT OccupyGuyFacialAnim_Joint
	{
		OFFSET 1.000000 -70.206398 -1.655000
		CHANNELS 3 Xrotation Yrotation Zrotation
		End Site
		{
			OFFSET 0.000000 21.880577 0.000000
		}
	}
}
MOTION
Frames: 4
Frame Time: 0.033333
-0.184930 78.478836 -1.638420 -95.418214 -7.238008 0.357163 0.000000 0.000001 -0.000000 6.982698 16.040993 8.445671 5.449846 -0.887374 5.211903 34.255666 30.246718 -30.439032 0.000002 0.000000 -0.000000 -0.000000 -0.000000 -0.000000 0.855138 -15.894532 -12.476454 7.938238 -1.465663 -5.019465 35.343934 -30.130666 30.500124 0.000001 -0.000001 -0.000000 -0.000000 0.000002 0.000001 0.794642 0.603851 -2.091061 2.204385 1.784829 -0.665195 2.202312 1.769894 -0.647098 -3.316728 14.378405 -4.136617 2.661002 45.887253 -4.409782 0.000001 0.000001 -0.000000 0.000001 0.000001 -0.000000 0.000001 0.000001 0.000000 0.000001 0.000001 -0.000000 0.000000 -0.000001 0.000001 0.000001 0.000001 -0.000000 0.000000 -0.000001 0.000001 0.000001 0.000001 -0.000000 0.000001 0.000001 -0.000000 0.569827 0.115864 -3.289598 22.105212 -32.831883 -61.622397 0.000329 -79.532642 0.000352 -1.703442 7.065535 -14.772775 -5.218577 -3.359709 5.596913 7.385519 23.148030 2.272609 -0.000001 0.000002 -0.000003 0.915772 5.403956 -29.714174 0.382356 2.083602 -20.795018 0.000003 -0.000000 -0.000002 0.656297 4.925775 -25.952634 0.379113 2.075035 -20.705413 0.000000 0.000001 -0.000001 0.574713 4.751505 -24.069204 0.379110 2.075020 -20.705415 -0.000001 0.000002 -0.000001 0.322895 4.082526 -17.072556 0.379108 2.075027 -20.705406 0.000002 0.000004 0.000002 0.000002 0.000002 -0.000001 0.743785 3.256015 9.948584 38.102661 29.492890 34.414864 0.000055 102.397855 -0.000041 -38.690156 12.173086 12.524624 -8.245048 0.297089 -8.931543 7.579947 -24.795262 -2.907002 -0.000000 -0.000002 -0.000002 0.905457 -3.314677 34.539454 0.217996 -1.409593 17.581803 -0.000000 0.000000 -0.000003 -0.241996 -3.204347 32.825353 0.218118 -1.409975 17.586649 0.000001 0.000000 -0.000001 -0.300129 -2.822089 28.489349 0.217994 -1.409601 17.581788 -0.000000 -0.000000 -0.000000 0.330083 -3.878164 20.013576 0.218169 -1.410137 17.588693 -0.000001 0.000000 0.000001 0.000000 -0.000001 0.000004 -0.000000 -0.000000 0.000000 -0.000000 0.000000 0.000000 -0.000000 -0.000000 0.000000 -0.000000 -0.000000 0.000000 -0.000000 -0.000000 0.000000 -0.000000 0.000000 0.000000 -0.000000 -0.000000 0.000000 -0.000000 -0.000000 0.000000 -0.000000 -0.000000 0.000000 -0.000000 0.000000 0.000000 0.000000 0.000001 -0.000000 0.000000 0.000001 -0.000000 0.000000 0.000001 -0.000000 
-0.186445 78.482025 -1.639702 -95.415919 -7.239698 0.353661 0.000000 -0.000000 -0.000000 6.980721 16.041341 8.449768 5.426458 -0.804192 5.211843 34.251165 30.245976 -30.441938 0.000001 0.000000 -0.000000 -0.000000 0.000000 0.000001 0.855914 -15.917153 -12.475250 7.912220 -1.447843 -5.019450 35.342780 -30.131038 30.499844 0.000001 -0.000000 0.000000 0.000000 -0.000002 -0.000000 0.794652 0.613299 -2.090923 2.204407 1.784832 -0.665194 2.212416 1.769895 -0.647098 -2.761143 17.911826 -3.457330 2.742897 42.142896 -4.870803 -0.000000 0.000003 0.000001 -0.000000 0.000003 0.000001 -0.000000 0.000003 0.000001 -0.000000 0.000003 0.000001 -0.000000 0.000002 0.000000 -0.000000 0.000003 0.000001 -0.000000 0.000002 0.000000 -0.000000 0.000003 0.000001 -0.000000 0.000003 0.000001 0.566725 0.060798 -3.313747 22.103921 -32.833389 -61.552872 -0.000203 -79.499625 -0.000214 -1.620618 7.007288 -15.027552 -5.218581 -3.359731 5.596897 7.385525 23.148032 2.272618 0.000002 -0.000004 -0.000000 0.908814 5.392521 -29.583380 0.382360 2.083611 -20.795016 -0.000000 0.000001 -0.000002 0.650453 4.913767 -25.821998 0.379107 2.075036 -20.705411 0.000001 0.000001 -0.000001 0.569264 4.739297 -23.938626 0.379109 2.075042 -20.705404 -0.000001 0.000000 -0.000001 0.318980 4.069751 -16.942151 0.379112 2.075034 -20.705409 -0.000000 -0.000004 -0.000001 0.000002 -0.000003 -0.000001 0.762552 3.138081 9.984533 38.035117 29.525422 34.424170 0.000134 102.375090 -0.000115 -38.666299 12.115492 12.605304 -8.245046 0.297091 -8.931549 7.579943 -24.795263 -2.906997 0.000000 -0.000001 -0.000000 0.905458 -3.314677 34.539450 0.217995 -1.409594 17.581800 -0.000000 -0.000001 0.000002 -0.241996 -3.204346 32.825353 0.218120 -1.409976 17.586649 0.000001 0.000001 -0.000001 -0.300127 -2.822089 28.489351 0.217991 -1.409602 17.581788 0.000000 0.000000 -0.000001 0.330084 -3.878162 20.013571 0.218167 -1.410138 17.588692 -0.000000 0.000001 -0.000001 -0.000002 -0.000000 -0.000001 -0.000000 -0.000000 -0.000000 -0.000000 -0.000000 -0.000000 -0.000000 -0.000000 -0.000000 -0.000000 -0.000000 -0.000000 -0.000000 -0.000000 -0.000000 -0.000000 -0.000000 -0.000000 -0.000000 -0.000000 -0.000000 -0.000000 -0.000000 -0.000000 -0.000000 -0.000000 -0.000000 -0.000000 -0.000000 -0.000000 0.000000 -0.000000 -0.000000 0.000000 -0.000000 -0.000000 0.000000 -0.000000 -0.000000 
-0.189319 78.485779 -1.640610 -95.413194 -7.241561 0.347455 0.000000 0.000000 0.000000 6.959708 16.055509 8.466548 5.454909 -0.856886 5.211872 34.234144 30.231739 -30.439185 0.000000 -0.000001 0.000001 -0.000000 -0.000002 -0.000000 0.855200 -15.963132 -12.473102 7.888784 -1.407917 -5.019497 35.340034 -30.117333 30.499520 -0.000002 -0.000000 -0.000001 0.000000 -0.000000 -0.000000 0.794639 0.624206 -2.090057 2.204405 1.784831 -0.665194 2.223927 1.769897 -0.647098 -2.713451 17.727083 -3.285229 2.714566 41.845755 -4.793242 -0.000000 -0.000001 -0.000000 -0.000000 -0.000001 -0.000000 -0.000000 -0.000001 -0.000001 -0.000000 -0.000001 0.000001 -0.000001 -0.000001 0.000001 -0.000000 -0.000001 0.000001 -0.000001 -0.000001 0.000001 -0.000000 -0.000001 -0.000000 -0.000000 -0.000001 -0.000000 0.577773 0.030233 -3.386775 22.038317 -32.647478 -61.466730 0.000386 -79.429991 0.000396 -1.470032 6.878412 -15.609412 -5.218581 -3.359729 5.596910 7.385514 23.148035 2.272610 -0.000002 -0.000004 -0.000003 0.886598 5.355635 -29.161445 0.382364 2.083596 -20.795018 0.000002 -0.000001 0.000001 0.631787 4.874979 -25.400553 0.379111 2.075043 -20.705408 0.000002 0.000000 -0.000003 0.551892 4.699923 -23.517347 0.379102 2.075021 -20.705418 -0.000002 -0.000003 -0.000002 0.306569 4.028577 -16.521411 0.379111 2.075031 -20.705415 -0.000002 0.000002 0.000001 0.000001 -0.000003 -0.000000 0.776147 3.008245 10.059515 37.988122 29.518466 34.417269 0.000213 102.377371 -0.000182 -38.635686 12.043593 12.701342 -8.245052 0.297088 -8.931546 7.579948 -24.795265 -2.906996 -0.000001 0.000000 0.000001 0.905456 -3.314678 34.539450 0.217997 -1.409593 17.581797 -0.000000 -0.000001 0.000002 -0.241995 -3.204346 32.825353 0.218116 -1.409977 17.586649 0.000001 -0.000000 -0.000003 -0.300129 -2.822089 28.489353 0.217992 -1.409601 17.581783 -0.000000 0.000000 -0.000002 0.330080 -3.878164 20.013576 0.218169 -1.410137 17.588692 -0.000001 0.000000 0.000002 -0.000000 -0.000002 -0.000002 -0.000000 -0.000000 0.000000 -0.000000 -0.000000 -0.000000 -0.000000 -0.000000 -0.000000 -0.000000 -0.000000 -0.000000 -0.000000 -0.000000 0.000000 -0.000000 -0.000000 -0.000000 -0.000000 -0.000000 -0.000000 -0.000000 -0.000000 -0.000000 -0.000000 -0.000000 0.000000 -0.000000 -0.000000 -0.000000 0.000000 0.000000 0.000000 0.000000 0.000000 0.000000 0.000000 0.000000 0.000000 
-0.193606 78.489960 -1.641212 -95.407224 -7.240144 0.339014 -0.000001 -0.000000 -0.000000 6.918163 16.077068 8.491858 5.515090 -0.925307 5.211931 34.207862 30.205200 -30.430333 0.000000 -0.000001 0.000001 0.000000 -0.000001 -0.000000 0.853499 -16.032435 -12.470015 7.867058 -1.347648 -5.019525 35.336346 -30.099185 30.496146 -0.000001 -0.000000 0.000001 -0.000001 0.000001 -0.000000 0.794638 0.635031 -2.088730 2.204390 1.784829 -0.665194 2.234788 1.769895 -0.647098 -2.616003 17.444185 -3.072709 2.787734 41.358274 -4.900176 0.000000 -0.000002 -0.000000 0.000000 -0.000002 -0.000000 0.000000 -0.000002 0.000000 0.000000 -0.000002 0.000000 -0.000000 -0.000002 -0.000000 0.000000 -0.000002 0.000000 -0.000000 -0.000002 -0.000000 0.000000 -0.000002 -0.000000 0.000000 -0.000002 -0.000000 0.592711 0.004050 -3.495303 21.932081 -32.313611 -61.372474 0.000478 -79.368014 0.000488 -1.291706 6.696573 -16.411580 -5.218582 -3.359729 5.596896 7.385511 23.148054 2.272626 -0.000001 0.000001 0.000002 0.859523 5.309791 -28.640310 0.382352 2.083601 -20.795015 0.000001 -0.000001 -0.000002 0.609125 4.826860 -24.879995 0.379114 2.075029 -20.705408 0.000002 -0.000001 0.000000 0.530837 4.651087 -22.996989 0.379109 2.075029 -20.705409 -0.000002 -0.000003 -0.000001 0.291647 3.977539 -16.001745 0.379115 2.075041 -20.705418 -0.000002 -0.000001 0.000001 0.000002 0.000001 0.000001 0.781907 2.872464 10.149795 37.949518 29.494178 34.403188 0.000046 102.380629 -0.000058 -38.599322 11.955113 12.799062 -8.245045 0.297089 -8.931540 7.579954 -24.795257 -2.906995 0.000001 0.000000 -0.000001 0.905457 -3.314677 34.539450 0.217997 -1.409593 17.581800 -0.000001 0.000000 0.000000 -0.241994 -3.204346 32.825350 0.218117 -1.409975 17.586648 0.000002 -0.000001 0.000001 -0.300128 -2.822088 28.489349 0.217992 -1.409600 17.581786 0.000001 -0.000001 -0.000000 0.330082 -3.878161 20.013571 0.218169 -1.410137 17.588695 0.000001 0.000000 0.000001 0.000002 -0.000000 0.000002 0.000000 -0.000000 0.000000 0.000000 -0.000000 -0.000000 0.000000 -0.000000 0.000000 0.000000 -0.000000 0.000000 0.000000 -0.000000 0.000000 0.000000 -0.000000 0.000000 0.000000 -0.000000 0.000000 0.000000 -0.000000 0.000000 0.000000 -0.000000 0.000000 0.000000 -0.000000 0.000000 -0.000001 -0.000000 -0.000000 -0.000001 -0.000000 -0.000000 -0.000001 -0.000000 -0.000000 
